<svg width="2580" height="1013" viewBox="0 0 2580 1013" fill="none" xmlns="http://www.w3.org/2000/svg">
<g filter="url(#filter0_d_559_270)">
<path d="M1146.67 0.561066C1099.2 3.76108 1048.13 24.1611 1012 54.5611C970.533 89.2278 943.867 130.694 930.8 180.561C924.4 205.228 923.333 213.761 923.333 242.428C923.333 271.094 924.4 279.628 930.8 304.294C941.867 346.294 960.933 379.894 991.867 411.494C1017.2 437.494 1043.87 455.361 1076.53 468.428C1123.47 486.961 1181.6 490.028 1230.53 476.294C1250.27 470.694 1281.87 456.961 1290.13 450.294C1293.6 447.494 1292 448.161 1276 456.028C1213.47 486.828 1137.47 487.628 1072.93 457.894C1047.33 446.161 1026.8 431.494 1004.67 409.228C955.733 360.161 932.267 297.628 936.133 227.094C938.133 191.494 949.6 153.628 967.6 122.961C982.4 97.8944 1009.07 68.0277 1031.07 51.8944C1078.13 17.4944 1133.2 1.62775 1190 5.89441C1221.33 8.2944 1249.6 15.7611 1276 28.8277C1292 36.6944 1293.6 37.3611 1290.13 34.5611C1285.87 31.0944 1265.47 21.0944 1252.27 15.8944C1220.53 3.49442 1184 -1.83893 1146.67 0.561066Z" fill="#07D685"/>
<path d="M1981.4 640.678C1971.65 642.45 1958.46 647.103 1951.59 651.201C1942.06 656.962 1940.39 659.067 1948.15 655.633C1978.3 642.339 2034.05 644.112 2070.96 659.51C2080.61 663.498 2077.95 661.061 2066.31 655.079C2056.55 650.204 2041.37 644.887 2029.73 642.339C2019.98 640.234 1989.83 639.237 1981.4 640.678Z" fill="#07BDD6"/>
<path d="M2013.99 666.599C2006.45 673.246 1999.36 674.132 1981.4 670.587C1960.12 666.488 1953.69 670.033 1934.63 696.62C1923.32 712.351 1915.68 720.216 1908.25 724.093C1905.26 725.755 1903.59 726.973 1904.48 726.973C1907.03 727.084 1915.45 722.985 1921.66 718.665C1929.97 713.015 1936.07 712.572 1947.04 717.003C1955.69 720.437 1963.34 721.324 1966.55 719.33C1967.88 718.443 1967.88 718.222 1966 718.222C1962.34 718.111 1954.69 714.123 1952.81 711.354C1949.7 706.701 1949.48 702.491 1952.14 699.611C1955.14 696.509 1956.35 696.509 1957.68 699.833C1960.01 706.147 1968.1 708.03 1971.98 703.156C1975.53 698.614 1974.64 691.967 1969.88 688.644C1968.66 687.758 1968.21 686.318 1968.55 684.102C1968.88 681.444 1969.66 680.668 1972.2 680.336C1976.75 679.671 1980.85 685.099 1983.07 694.626L1984.06 698.836L1984.18 693.518C1984.29 690.638 1983.51 686.429 1982.62 684.213C1981.74 682.108 1980.96 680.114 1980.96 679.893C1980.96 679.671 1984.84 679.45 1989.61 679.45C2000.25 679.45 2007.12 676.458 2013.99 669.147C2017.98 664.716 2019.42 662.722 2018.43 662.833C2018.2 662.944 2016.21 664.605 2013.99 666.599Z" fill="#07BDD6"/>
<path d="M1939.4 671.696C1936.18 674.798 1928.64 684.214 1922.77 692.522C1908.8 712.019 1903.48 718.334 1897.06 722.654C1893.62 724.98 1892.73 725.977 1894.51 725.424C1903.26 722.876 1912.02 713.792 1925.76 692.633C1931.53 683.882 1938.51 674.355 1941.39 671.364C1948.15 664.496 1946.93 664.717 1939.4 671.696Z" fill="#07BDD6"/>
<path d="M2046.8 670.144C2080.61 677.788 2111.42 702.381 2130.49 737.055C2135.58 746.249 2135.58 744.587 2130.37 728.525C2122.62 704.707 2106.54 686.097 2085.48 676.459C2075.62 671.917 2064.42 669.48 2051.35 668.926L2039.15 668.372L2046.8 670.144Z" fill="#07BDD6"/>
<path d="M1871.78 691.859C1865.35 698.949 1861.03 707.922 1860.81 714.458C1860.7 718.224 1859.92 719.996 1857.15 722.877C1855.27 724.871 1852.28 729.302 1850.61 732.625C1848.06 737.721 1847.51 740.38 1847.29 748.688C1846.96 758.326 1846.96 758.437 1847.95 751.901C1849.73 739.272 1859.37 725.203 1869.23 720.993C1871.89 719.775 1874.22 718.778 1874.44 718.667C1874.67 718.446 1873.78 717.005 1872.45 715.344C1868.79 710.691 1869.34 703.49 1873.89 694.296C1876 690.086 1877.55 686.541 1877.44 686.32C1877.21 686.209 1874.67 688.646 1871.78 691.859Z" fill="#07BDD6"/>
<path d="M2011 694.96C2004.13 697.397 2003.02 698.173 1988.61 708.364C1967 723.873 1953.14 727.086 1933.85 720.993C1932.64 720.55 1932.97 720.993 1934.63 721.99C1936.29 722.987 1941.39 724.316 1945.94 725.092C1961.79 727.529 1973.42 723.652 1996.04 708.586C2009.89 699.28 2014.88 696.4 2020.31 694.185L2023.64 692.966L2020.31 692.855C2018.54 692.855 2014.32 693.742 2011 694.96Z" fill="#07BDD6"/>
<path d="M2038.04 703.267C2018.65 707.476 2000.14 717.779 1990.72 729.41C1983.07 738.827 1983.84 739.824 1992.6 731.737C2009.89 715.563 2041.37 704.264 2070.19 703.71C2077.61 703.599 2077.73 703.488 2072.96 702.602C2065.2 701.273 2045.47 701.605 2038.04 703.267Z" fill="#07BDD6"/>
<path d="M2033.83 717.667C2016.99 720.88 1999.58 729.41 1990.94 738.715L1987.06 742.925L1990.61 740.488C2002.58 732.29 2024.19 725.533 2043.92 723.871C2065.2 721.988 2091.8 725.865 2108.21 733.176L2114.53 735.946L2111.2 733.066C2105.99 728.745 2093.91 722.985 2083.27 719.772C2070.85 716.116 2047.47 715.119 2033.83 717.667Z" fill="#07BDD6"/>
<path d="M1869.57 740.82C1868.35 741.706 1867.79 742.925 1868.24 744.143C1868.79 745.473 1870.45 745.916 1875.33 745.916C1878.88 745.916 1882.98 746.248 1884.53 746.691C1887.08 747.356 1887.19 747.245 1885.64 745.362C1883.87 743.146 1876.11 739.38 1873.34 739.269C1872.45 739.269 1870.68 739.934 1869.57 740.82Z" fill="#07BDD6"/>
<path d="M2051.35 740.491C2035.5 741.82 2009.89 747.248 1988.94 753.673C1960.35 762.536 1957.35 764.53 1982.07 758.105C2007.67 751.569 2019.42 750.018 2044.14 750.018C2065.31 749.907 2067.64 750.129 2077.73 752.898C2110.64 761.76 2131.82 785.245 2134.7 816.042C2135.47 825.125 2136.58 823.907 2138.24 812.054C2139.91 800.533 2139.8 794.551 2137.8 785.467C2135.47 774.5 2131.48 766.635 2124.5 759.323C2114.41 748.688 2100.12 742.596 2080.16 740.38C2069.08 739.162 2067.31 739.162 2051.35 740.491Z" fill="#07BDD6"/>
<path d="M1906.03 748.797C1906.03 753.671 1904.04 755.333 1896.17 756.994C1889.3 758.434 1885.86 761.647 1885.42 766.964C1885.31 770.177 1883.98 771.949 1878.55 776.934C1866.69 787.901 1860.15 800.862 1858.59 816.814C1858.15 820.803 1858.26 826.674 1858.82 829.776C1859.37 833.099 1859.37 835.647 1858.82 835.647C1856.93 835.647 1847.51 826.12 1844.07 820.692C1842.08 817.59 1839.2 811.608 1837.53 807.398C1834.87 800.198 1834.65 799.976 1835.32 804.629C1836.98 816.704 1843.19 828.889 1851.94 837.419C1857.82 842.958 1867.24 848.386 1873.34 849.605L1876.66 850.27L1872.89 843.18C1856.49 812.383 1868.9 784.135 1907.36 764.97C1918.12 759.542 1936.18 753.117 1948.26 750.458L1957.13 748.464L1939.4 749.018C1922.33 749.461 1915.68 748.686 1907.81 745.473C1906.37 744.919 1906.03 745.584 1906.03 748.797Z" fill="#07BDD6"/>
<path d="M1924.65 762.533C1900.93 770.73 1881.65 785.353 1874 801.084C1870.34 808.395 1871.01 809.614 1875.11 803.299C1885.2 788.123 1906.81 772.06 1929.42 762.865C1940.39 758.434 1937.18 758.212 1924.65 762.533Z" fill="#07BDD6"/>
<path d="M2000.36 769.291C1982.74 771.174 1946.05 779.372 1933.85 784.135L1929.42 785.797L1933.3 785.243C1963.56 780.258 1967.77 779.815 1991.49 779.815C2017.87 779.704 2026.85 780.922 2042.92 786.351C2067.08 794.548 2083.6 811.165 2088.59 832.324C2092.58 849.605 2087.92 872.204 2077.73 884.5L2074.62 888.267L2077.95 886.162C2104.22 869.545 2119.29 843.18 2115.41 820.581C2113.53 809.836 2109.2 801.86 2100.23 792.887C2087.59 780.258 2068.75 772.282 2044.14 769.291C2033.39 767.851 2013.33 767.961 2000.36 769.291Z" fill="#07BDD6"/>
<path d="M1961.01 794.769C1948.71 795.877 1923.88 800.419 1912.79 803.521C1906.14 805.404 1905.7 805.626 1910.02 805.183C1936.85 802.413 1946.05 802.081 1959.02 803.299C1975.2 804.85 1986.5 807.841 1996.59 813.048C2025.3 828.114 2034.17 859.575 2018.87 891.59C2016.43 896.685 2012.11 903.221 2008.78 906.766C2005.57 910.311 2003.24 913.191 2003.68 913.191C2004.13 913.191 2008.01 911.308 2012.22 909.093C2028.62 900.563 2043.03 883.17 2049.24 864.671C2051.79 857.138 2052.12 854.811 2051.68 844.509C2051.01 829.775 2048.24 822.907 2038.71 813.38C2028.18 802.856 2013.99 797.096 1992.6 794.659C1981.41 793.44 1976.2 793.44 1961.01 794.769Z" fill="#07BDD6"/>
<path d="M1951.03 813.935C1951.03 814.157 1953.25 815.708 1955.91 817.259C1974.64 828.226 1982.85 855.92 1973.31 876.193C1967.55 888.489 1960.35 894.25 1939.95 903.001C1937.29 904.109 1937.29 904.22 1941.06 904.22C1947.93 904.331 1959.79 901.229 1966.66 897.462C1975.64 892.699 1985.51 882.729 1989.83 874.088C2001.69 849.938 1991.71 827.783 1964.34 817.591C1956.58 814.711 1951.03 813.16 1951.03 813.935Z" fill="#07BDD6"/>
<path d="M1932.75 821.135C1937.4 828.114 1939.29 835.98 1938.62 846.061C1937.51 863.12 1928.09 875.306 1910.36 882.839L1903.93 885.608L1911.91 885.055C1926.54 884.058 1939.29 875.638 1945.6 862.677C1952.81 848.165 1949.15 831.992 1936.29 820.692C1933.19 817.923 1930.2 815.707 1929.75 815.707C1929.42 815.707 1930.64 818.144 1932.75 821.135Z" fill="#07BDD6"/>
<path d="M4.93333 5.36136C4.4 5.76138 4 16.5614 4 29.3614V52.428H46H88V127.628V202.695L73.0667 203.628C51.7333 204.961 46 206.428 39.6 212.295C32.8 218.428 30.6667 223.628 30.6667 234.028C30.8 260.295 65.7333 303.361 94.9333 313.228C112.667 319.228 128.8 313.361 136.533 298.028C139.333 292.695 141.2 278.028 141.333 262.695V251.095H214H286.667V333.095V415.095H313.333H340V233.761V52.428H374H408V28.428V4.42804H206.933C96.2667 4.42804 5.33333 4.82803 4.93333 5.36136ZM286.667 127.761V203.095H214H141.333V127.761V52.428H214H286.667V127.761Z" fill="#07D685"/>
<path d="M628.8 7.22784C590.133 10.6945 552.533 23.8945 519.733 45.6278C511.867 50.8279 505.2 55.6278 504.8 56.2945C504.4 56.9612 510.133 55.4945 517.733 53.0945C540.4 45.8945 555.067 43.7612 580.667 43.8945C598.533 43.8945 606.4 44.5612 617.6 46.8278C697.467 63.2278 757.067 122.828 774.267 203.095C776.133 211.895 776.667 220.428 776.667 241.095C776.667 264.161 776.267 269.628 773.6 281.761C764.8 320.695 748 351.228 719.467 379.895C689.6 409.761 655.867 427.761 616.267 434.961C582.667 441.095 555.333 439.495 516.667 428.961C513.333 428.028 527.733 437.361 540.267 444.295C558.8 454.428 587.467 464.161 609.733 467.628C680.267 478.961 750.667 458.828 803.733 412.161C840.4 380.028 867.333 333.495 877.333 285.095C881.067 267.095 881.733 253.228 880.133 223.761C879.067 202.428 878.133 194.294 875.2 183.095C864 139.228 842.133 101.895 809.067 70.4278C792 54.1612 774.933 42.1612 752.667 31.2278C723.867 16.9612 697.333 9.62784 664.933 7.09451C646.8 5.62784 647.2 5.62784 628.8 7.22784ZM682 12.9612C706.933 16.8278 725.867 22.6945 748 33.2278C806.4 61.2278 850.8 113.095 868.667 174.561C881.067 217.095 880.533 266.028 867.2 307.361C860.667 327.895 851.2 347.361 839.067 365.761C825.6 386.028 798.8 413.095 778.667 426.695C722.4 464.561 656.8 476.161 592.133 459.895C573.067 455.095 539.6 441.628 541.6 439.628C542 439.361 545.2 439.628 548.8 440.295C561.067 442.561 584.533 443.228 597.333 441.895C625.733 438.561 646.667 432.561 670 420.961C729.733 391.228 770.533 334.295 780.133 267.228C782.667 249.628 780.933 213.761 776.933 196.295C768 158.561 749.067 124.961 721.467 97.7612C688.533 65.4945 648 46.1612 601.333 40.4278C581.6 38.0278 555.867 39.3612 536.667 43.7612C532.267 44.6945 528.533 45.3611 528.267 45.0945C528 44.8278 532.933 41.8945 539.333 38.4278C561.067 26.5612 584.533 18.4279 610.667 13.7612C628.133 10.6945 664.533 10.2945 682 12.9612Z" fill="#07D685"/>
<path d="M1416.67 12.561C1416.27 13.6277 1416.13 113.761 1416.27 235.094L1416.67 455.761L1440.4 456.161L1464 456.428V236.294V16.0277L1474.8 16.8277C1534 21.4944 1587.73 70.161 1627.2 155.094C1662.27 230.428 1685.33 334.161 1688.8 431.894L1689.73 456.428L1713.2 456.161L1736.67 455.761V233.761V11.761H1713.33H1690L1689.33 188.961L1688.67 366.161L1685.47 344.294C1668 222.561 1623.87 114.828 1568.67 59.761C1552.93 44.0277 1541.07 35.2277 1524.67 27.2277C1498.67 14.4277 1489.73 12.561 1447.73 11.4944C1422.4 10.8277 1417.33 10.9611 1416.67 12.561Z" fill="#07D685"/>
<path d="M1293.33 36.828C1293.33 37.228 1294.93 38.428 1296.8 39.7613C1298.8 40.9613 1299.87 41.3613 1299.47 40.5613C1298.53 39.0947 1293.33 35.8947 1293.33 36.828Z" fill="#07D685"/>
<path d="M1137.33 40.9613C1108.13 45.228 1080.53 55.3613 1057.07 70.5613C1052 73.7613 1048 76.6946 1048 77.0946C1048 77.628 1049.73 76.6946 1052 75.0946C1058.4 70.5613 1085.2 58.2946 1096.67 54.5613C1117.87 47.7613 1128 46.4279 1156.67 46.4279C1186 46.4279 1195.47 47.7613 1218.67 55.3613C1293.73 79.7613 1348.13 149.495 1353.07 227.761C1354.27 245.761 1352.93 267.895 1350 281.495C1333.07 360.695 1274 419.361 1194.67 436.028C1186 437.895 1177.2 438.428 1156.67 438.428C1128 438.428 1117.87 437.095 1096.67 430.295C1085.2 426.561 1058.4 414.295 1052 409.761C1049.73 408.161 1048 407.228 1048 407.628C1048 408.961 1063.6 418.828 1074.53 424.295C1131.6 453.095 1202.8 452.428 1258.53 422.961C1314 393.495 1350.53 345.628 1364.27 284.295C1366.93 272.161 1367.33 266.828 1367.33 242.428C1367.33 218.028 1366.93 212.695 1364.27 200.561C1346.13 119.495 1284.53 58.8279 1204.4 43.0946C1186 39.3613 1154.93 38.4279 1137.33 40.9613Z" fill="#07D685"/>
<path d="M1314.67 51.6281C1314.67 51.8947 1315.73 52.9614 1317.07 53.8947C1319.07 55.6281 1319.2 55.4947 1317.47 53.3614C1315.73 51.2281 1314.67 50.5614 1314.67 51.6281Z" fill="#07D685"/>
<path d="M556.934 68.028C555.467 69.4947 555.867 70.828 558.134 71.628C560 72.2947 560.134 72.1613 558.8 70.5613C557.6 69.0947 557.6 68.5613 558.934 68.028C559.867 67.628 560 67.228 559.2 67.228C558.4 67.0947 557.334 67.4947 556.934 68.028Z" fill="#07D685"/>
<path d="M562.8 70.5612C562.8 72.0279 563.2 72.4279 563.6 71.3612C564 70.4279 563.867 69.2279 563.467 68.8279C563.067 68.2946 562.667 69.0946 562.8 70.5612Z" fill="#07D685"/>
<path d="M548 70.9612C548 71.6279 548.933 72.8279 550 73.7612C551.733 75.0945 552 74.9612 552 72.5612C552 70.9612 551.2 69.7612 550 69.7612C548.933 69.7612 548 70.2945 548 70.9612Z" fill="#07D685"/>
<path d="M540.533 74.2951C540.133 75.4951 540.667 77.2284 541.733 78.4284C544.533 81.2284 545.067 80.9617 544.267 77.0951C543.6 72.9617 541.6 71.4951 540.533 74.2951Z" fill="#07D685"/>
<path d="M546.8 75.8942C546.8 77.3609 547.2 77.7609 547.6 76.6942C548 75.7609 547.867 74.5609 547.467 74.1609C547.067 73.6276 546.667 74.4276 546.8 75.8942Z" fill="#07D685"/>
<path d="M534.933 76.295C533.467 77.095 533.6 77.6283 535.467 78.295C538.133 79.3617 539.733 78.295 537.867 76.4283C537.2 75.7617 535.867 75.7617 534.933 76.295Z" fill="#07D685"/>
<path d="M518.933 82.5617C516.533 84.4283 514.933 86.5617 515.467 87.2283C516.667 89.2283 514.667 93.7617 512.4 93.7617C511.333 93.7617 509.2 95.095 507.733 96.695C505.6 99.2283 505.2 99.3617 505.867 97.3617C506.267 96.0284 506.667 94.295 506.667 93.6283C506.667 92.9617 508.133 92.4283 510 92.4283C511.867 92.4283 513.733 91.495 514.267 90.4283C515.467 87.095 514 86.8283 509.2 89.3617C503.733 92.295 501.333 94.4283 501.333 96.295C501.333 97.095 500.267 97.7617 498.8 97.7617C497.467 97.7617 494.533 99.495 492.267 101.762C489.867 103.895 487.467 105.762 486.667 105.762C486 105.762 485.333 106.428 485.333 107.095C485.333 107.895 482.8 111.095 479.733 114.295C470.933 123.095 468 126.695 468 128.162C468 128.962 465.867 131.362 463.333 133.362C460.8 135.362 458.667 138.028 458.667 139.228C458.667 140.295 457.467 142.562 456 144.162C454.533 145.762 453.333 147.895 453.333 149.095C453.333 150.162 452.8 151.095 452.133 151.095C451.467 151.095 450.533 152.828 450 155.095C449.467 157.228 448.533 159.362 447.867 159.895C446.267 160.828 442.667 169.495 442.667 172.562C442.667 173.762 441.733 175.895 440.533 176.962C439.467 178.162 438.8 179.095 439.333 179.095C439.733 179.095 439.067 180.562 437.867 182.428C436.667 184.295 436 186.962 436.4 188.695C436.933 190.295 436.533 192.428 435.733 193.362C434.933 194.295 434.667 195.095 435.067 195.095C435.467 195.095 435.067 196.695 434 198.562C433.067 200.562 432.533 202.962 432.933 203.895C433.333 204.962 432.933 206.695 432 207.762C430.667 209.362 430.667 209.762 432 209.762C433.067 209.762 433.2 210.562 432.667 212.028C432.133 213.362 431.467 217.762 431.2 221.762C430.933 225.762 430.667 229.362 430.533 229.762C430 231.628 430.4 242.962 431.2 244.162C431.6 244.828 431.733 247.362 431.467 249.628C431.2 251.895 431.6 253.762 432.267 253.762C432.933 253.762 433.067 254.962 432.667 256.428C432.133 258.028 432.533 260.028 433.333 261.095C434.133 262.162 434.4 263.628 433.867 264.562C433.333 265.362 432.8 268.295 432.667 270.962C432.533 273.628 432.667 274.962 432.933 274.028C433.333 273.228 434.133 272.428 434.8 272.428C435.6 272.428 435.867 272.962 435.467 273.628C435.067 274.295 435.6 277.362 436.667 280.428C437.733 283.495 438.267 286.562 437.867 287.228C437.467 287.895 437.733 288.428 438.533 288.428C439.2 288.428 440.133 290.162 440.667 292.428C441.2 294.562 442.133 296.695 442.8 297.095C443.467 297.628 444 299.362 444 301.228C444 303.095 445.467 306.828 447.333 309.495C449.2 312.162 450.667 314.828 450.667 315.362C450.667 315.895 454.8 322.562 459.867 330.162C470 345.362 493.6 370.428 499.2 371.895C501.067 372.295 503.467 374.162 504.667 375.895C505.733 377.628 507.867 379.095 509.2 379.095C510.533 379.095 512.667 380.295 514 381.762C515.333 383.228 516.8 384.428 517.333 384.428C517.867 384.428 520.667 385.362 523.333 386.562C526.667 387.895 527.867 388.962 526.8 389.628C525.867 390.295 526.8 390.695 529.2 390.828C532 390.828 533.333 390.295 533.333 388.962C533.333 387.895 534 387.095 534.8 387.095C535.6 387.095 535.867 388.162 535.333 389.628C534.8 391.362 535.333 392.295 537.2 392.828C539.067 393.228 539.6 392.962 539.067 391.628C538.667 390.562 538.667 389.762 538.933 389.762C540.4 389.762 545.333 394.962 545.467 396.562C545.6 397.628 546.133 396.295 546.8 393.762C548 388.295 545.333 385.095 540.4 386.428C538 386.962 537.333 386.562 537.333 384.428C537.333 382.962 536.4 381.762 535.333 381.762C534.133 381.762 532.933 380.828 532.533 379.762C531.867 378.295 531.067 378.162 529.2 379.095C527.2 380.162 526.933 380.028 527.467 378.428C528 377.362 527.6 376.428 526.8 376.428C526 376.428 525.333 375.628 525.333 374.695C525.333 373.628 524 372.295 522.4 371.495C520.133 370.562 519.333 368.962 519.2 365.628C518.933 359.228 518.133 355.895 516.933 354.962C516.267 354.562 516.8 353.228 518 351.895C519.2 350.695 519.6 349.762 518.8 349.762C518.133 349.762 516.933 350.695 516.267 351.895C515.467 353.362 514.667 353.628 514.133 352.695C513.6 351.895 512.267 351.628 511.067 352.028C509.333 352.695 509.067 352.162 509.867 348.295C511.467 339.495 511.333 336.028 509.467 335.362C508.267 334.962 507.867 335.362 508.4 336.828C508.933 338.295 508.4 338.562 506.533 338.162C503.2 337.228 503.333 338.428 506.933 342.028C509.6 344.695 509.733 345.095 507.6 345.495C504.933 346.028 504.667 347.228 506.933 349.495C507.733 350.295 508.133 351.362 507.733 351.762C506.667 352.828 500.133 350.162 497.733 347.628C495.867 345.895 496 345.762 499.067 346.428C501.733 347.095 502.667 346.695 503.333 344.428C504 342.428 503.6 340.962 502.533 340.295C501.333 339.495 500.533 339.895 500.267 341.095C500 342.162 499.2 343.095 498.4 343.095C497.6 343.095 497.467 341.362 498.133 338.828C498.933 334.828 498.8 334.695 496.8 336.295C494.933 337.895 494.267 337.762 492.667 335.628C491.6 334.162 491.2 331.762 491.6 329.762C492.667 325.362 492.533 325.495 495.467 327.895C497.2 329.362 497.467 330.162 496.4 330.562C495.467 330.962 494.667 332.295 494.667 333.495C494.667 335.095 495.067 335.228 496.267 334.028C497.2 333.095 498.933 332.428 500.267 332.428C503.733 332.428 503.2 330.428 499.333 328.695C496.667 327.495 496.133 326.428 496.667 324.028C497.2 322.028 496.4 319.095 494.533 315.895C492.4 312.162 492 310.562 493.2 309.362C495.733 306.828 494.8 305.762 490.667 306.562C487.6 307.228 486.667 306.962 486.667 305.228C486.667 302.028 484.133 302.695 483.2 306.162C482.667 308.695 481.733 309.228 479.2 308.695C475.6 308.028 476.133 305.762 480.133 305.762C484 305.762 483.2 303.095 478.667 301.628C474.933 300.295 472.933 296.428 476 296.428C476.8 296.428 477.333 297.362 477.333 298.428C477.333 299.628 478.133 300.028 479.333 299.628C480.4 299.095 481.333 299.495 481.333 300.428C481.333 301.228 482 301.495 482.667 301.095C484.933 299.762 484.133 297.762 481.333 297.762C479.733 297.762 478.667 296.828 478.667 295.628C478.667 294.295 479.467 293.762 480.533 294.162C482.267 294.828 484 292.562 484 289.628C484 288.562 475.867 292.562 472.267 295.362C471.067 296.428 470.8 296.295 471.467 294.562C471.867 293.362 473.067 292.428 474 292.428C475.067 292.428 476.267 291.228 476.667 289.762C477.6 286.962 480 286.028 480 288.562C480 289.628 480.667 289.628 482 288.428C483.067 287.495 484 287.228 484.133 287.895C484.133 288.562 484.8 287.628 485.467 285.895C486.133 284.162 486.4 281.628 486 280.295C485.467 278.828 485.733 277.762 486.533 277.762C487.333 277.762 488 277.095 488 276.162C488 275.362 487.6 275.095 487.067 275.495C486.667 276.028 485.467 275.762 484.4 274.962C483.067 273.762 482.667 274.162 482.667 276.962C482.667 278.828 483.333 280.428 484.133 280.428C486.4 280.428 484.133 282.828 479.733 284.962C474.933 287.362 469.6 286.562 471.867 283.895C472.667 282.962 475.067 282.428 477.467 282.828C480.533 283.228 481.467 282.962 480.8 281.895C480.267 280.962 478.667 280.695 477.333 281.095C476 281.495 474.533 281.362 474.133 280.562C472.667 278.162 467.867 280.562 468.267 283.628C468.533 285.762 468 286.428 465.467 286.428C463.733 286.428 462 285.495 461.733 284.428C461.2 282.828 461.333 282.828 462.4 284.162C463.333 285.628 463.733 285.495 464.267 283.495C464.667 282.162 466.667 280.162 468.8 279.095C470.933 278.028 472.933 276.962 473.2 276.828C473.467 276.695 472.933 275.495 472 274.295C470.4 272.562 470.533 272.028 472.133 270.828C473.6 269.762 473.6 269.628 471.733 270.295C470.133 270.695 469.733 270.428 470.267 268.962C470.667 268.028 470.267 267.095 469.467 267.095C468.667 267.095 468.4 266.162 468.8 265.095C469.333 264.028 470.4 263.095 471.467 263.095C472.533 263.095 473.333 262.428 473.333 261.762C473.333 259.895 471.867 260.162 468.933 262.428C467.2 263.628 466.667 265.095 467.333 267.228C468.133 269.762 468 270.028 464.933 269.228C463.067 268.828 461.2 268.962 460.667 269.762C459.733 271.228 456 270.028 456 268.295C456 267.628 456.8 267.095 457.867 267.095C458.933 267.095 460.267 265.762 460.8 264.162C462 260.162 465.2 258.028 468.267 258.828C469.867 259.228 470.667 258.695 470.667 257.095C470.667 255.228 470.267 255.095 468.667 256.428C467.6 257.362 466.667 257.628 466.667 257.228C466.667 256.695 467.6 255.362 468.667 254.295C470.267 252.695 470.667 252.695 470.667 254.028C470.8 255.095 471.733 254.562 473.2 252.695C474.667 251.095 476.667 249.762 477.867 249.762C480.267 249.762 480.667 247.762 478.667 246.428C477.733 245.762 477.6 244.962 478.533 244.028C480 242.162 477.333 237.762 474.8 237.762C474 237.762 473.333 237.095 473.333 236.428C473.333 235.628 474 235.095 474.8 235.095C476.933 235.095 475.6 229.495 472.933 227.895C471.2 226.828 470.267 226.828 469.6 228.028C468.667 229.362 467.733 229.362 464.933 228.028C461.333 226.428 460.133 224.428 462.8 224.428C463.6 224.428 463.867 223.495 463.467 222.295C462.933 221.095 463.2 220.562 464.133 221.228C464.933 221.762 466.133 221.228 466.8 220.295C467.6 218.962 468 219.228 468 221.495C468 224.962 471.467 226.828 473.733 224.562C474.8 223.495 474.533 223.095 472.8 223.095C470.933 223.095 470.667 222.428 471.333 219.228C472 216.028 471.6 215.228 469.467 214.428C466.667 213.628 465.6 211.095 468 211.095C468.667 211.095 468.933 209.362 468.533 207.095C468 204.562 468.267 203.095 469.2 203.095C470 203.095 470.8 204.428 470.8 206.028C470.933 208.295 471.067 208.562 471.6 206.695C472 204.962 473.067 204.695 475.733 205.362C478.8 206.028 479.067 205.895 477.6 204.162C476.267 202.428 476.4 201.762 478 200.428C479.467 199.228 479.6 198.295 478.667 197.095C478 196.295 477.733 195.095 478.267 194.562C478.8 194.162 478 192.828 476.533 191.762C474.4 190.028 474.4 189.895 476.4 190.562C477.867 191.095 478.667 190.695 478.667 189.628C478.8 188.428 479.867 189.095 481.467 190.962C484.8 194.962 486.4 193.495 484.267 188.162C483.467 185.895 483.067 183.495 483.467 182.962C483.867 182.295 482.933 181.762 481.467 181.762C480 181.762 478.4 182.295 478 183.095C477.6 183.762 477.867 184.428 478.533 184.428C479.333 184.428 480 185.095 480 185.895C480 186.962 479.467 186.962 478.133 185.895C476.667 184.695 476.133 184.695 475.733 185.895C475.067 187.895 472 186.295 472 184.028C472 182.962 472.4 182.962 473.2 184.162C474 185.495 474.667 185.495 476 183.762C477.467 182.028 477.467 180.962 476.267 178.962C474 175.362 475.6 173.362 479.867 174.295L483.333 174.962L479.733 173.362C475.733 171.762 474.533 168.295 478.4 169.228C479.867 169.628 481.2 168.828 482 166.828C482.8 165.095 484.133 163.895 484.933 164.028C485.733 164.162 486.133 163.228 485.733 161.762C485.333 160.295 484.533 159.095 484 159.095C483.467 159.095 483.067 157.628 483.067 155.762C483.067 153.895 483.733 152.428 484.8 152.428C485.733 152.428 487.467 151.095 488.8 149.362C490.133 147.628 490.667 147.228 490.267 148.695C489.867 149.895 490.133 151.095 490.933 151.362C491.867 151.762 492 152.695 491.467 153.628C490.8 154.562 489.6 154.962 488.667 154.562C487.6 154.162 486.133 154.828 485.333 155.895C484 157.362 484.133 157.762 485.733 157.762C486.933 157.762 488.533 158.828 489.2 160.028C490.4 162.028 490.533 161.895 490.667 158.695C490.667 156.428 491.333 155.095 492.667 155.095C493.733 155.095 494.667 154.428 494.667 153.762C494.667 152.962 495.6 152.428 496.667 152.428C499.6 152.428 499.067 156.028 496 156.828C494.533 157.228 493.333 158.562 493.333 159.762C493.333 161.628 493.733 161.762 495.2 160.562C496.667 159.362 497.6 159.495 499.2 161.095C500.533 162.428 501.333 162.695 501.333 161.762C501.333 160.828 502.267 160.562 503.467 160.962C505.333 161.762 505.467 161.495 504 159.762C502.667 158.295 502 158.028 501.333 159.228C500.533 160.295 500.133 160.295 499.333 159.095C498.8 158.162 499.067 156.962 500 156.428C501.067 155.762 501.2 154.295 500.533 152.295C500 150.562 499.6 148.562 499.867 147.895C500.267 146.295 489.2 136.428 487.867 137.228C487.333 137.495 486.4 137.228 486 136.428C485.333 135.362 484.4 135.495 482.933 136.695C481.467 137.895 481.6 137.362 483.333 134.828C485.6 131.895 486.133 131.762 487.2 133.362C488.133 135.095 488.533 135.095 489.6 133.628C490.667 132.162 490.8 132.295 490.133 134.028C489.6 135.628 490.133 136.428 491.6 136.428C492.8 136.428 495.2 137.628 496.8 139.228C498.4 140.695 501.333 142.162 503.2 142.295C506.267 142.695 506.667 142.295 506.667 138.295C506.667 135.895 506.133 133.495 505.333 133.095C504.533 132.562 504 133.895 504 136.295C504 138.428 503.467 140.695 502.667 141.095C501.867 141.495 501.333 140.562 501.333 138.695C501.333 136.828 500.4 134.695 499.333 133.762C497.067 131.895 496.667 129.762 498.667 129.762C499.467 129.762 500 130.828 500.133 132.028C500.133 133.895 500.4 133.762 501.333 131.362C502 129.762 502.133 127.362 501.733 126.162C500.933 124.162 501.067 124.028 502.933 125.762C504 126.828 504.933 128.295 504.667 129.095C504.533 129.762 504.667 130.028 504.933 129.362C505.333 128.828 506.667 128.428 508 128.428C509.333 128.428 510.8 127.895 511.2 127.228C512.133 125.895 508.267 124.028 506.667 125.095C506.133 125.495 505.2 124.695 504.8 123.495C503.733 120.828 506.667 118.695 508.933 120.695C510.267 121.762 510.667 121.362 510.667 119.095C510.667 115.095 514 112.828 519.067 113.495L523.067 114.162L519.867 115.895L516.667 117.628L519.733 117.762C521.333 117.762 522.667 117.228 522.667 116.428C522.667 115.762 523.733 115.495 525.067 116.028C526.533 116.562 526.133 115.895 524 114.028L520.667 111.095L523.867 111.495C525.733 111.628 527.333 110.962 527.6 109.762C528 108.295 527.867 108.162 526.933 109.495C526.267 110.428 524.8 110.828 523.733 110.428C522.533 109.895 521.2 110.162 520.667 110.962C519.467 113.095 516 112.695 516 110.562C516 109.495 516.8 108.295 517.733 107.895C518.933 107.495 518.667 106.695 517.067 105.362C514.133 102.962 514 101.762 516.8 101.762C520.267 101.762 526.8 97.3617 526.133 95.495C525.733 94.5617 526.267 93.7617 527.333 93.7617C528.4 93.7617 529.333 93.095 529.333 92.4283C529.333 90.0284 524.267 93.495 523.333 96.5617C522.267 99.895 516.933 99.495 516.267 96.0284C515.867 94.1617 516.533 93.7617 519.467 94.0284C521.6 94.295 523.333 93.7617 523.733 92.5617C524.133 91.2283 523.467 91.095 521.2 91.7617C519.467 92.1617 518.667 92.1617 519.333 91.495C520.133 90.9617 521.733 88.695 523.067 86.695C524.8 84.0284 526.133 83.2283 528.133 83.7617C530 84.4283 530.667 84.0284 530.667 82.1617C530.667 80.4283 531.6 81.095 533.6 84.295C535.467 87.2283 536.8 88.1617 537.067 87.095C537.467 86.0284 537.067 84.9617 536.267 84.695C535.333 84.4283 534.667 83.3617 534.667 82.4283C534.667 78.0284 524.667 78.0284 518.933 82.5617ZM511.2 102.562C511.067 104.428 510.533 106.295 510.133 106.695C508.933 107.895 507.6 103.362 508.533 101.095C509.733 97.7617 511.6 98.8283 511.2 102.562ZM504.533 102.562C506.8 103.495 507.467 109.095 505.467 110.295C504.8 110.828 502.8 110.562 501.067 109.895C499.067 108.962 498.8 108.562 500.133 108.562C503.067 108.428 504.667 104.295 502.4 102.828C500.4 101.628 501.6 101.362 504.533 102.562ZM503.867 113.895C508.667 115.628 509.333 117.362 505.067 116.962C500.533 116.695 496 114.962 496 113.628C496 112.028 498.667 112.162 503.867 113.895ZM500.667 123.095C499.6 124.695 496 123.228 496 121.228C496 120.295 496.667 118.962 497.6 118.028C498.933 116.695 499.467 116.962 500.267 119.228C500.933 120.695 501.067 122.562 500.667 123.095ZM491.2 126.428C490.667 127.495 489.867 128.028 489.2 127.628C487.333 126.562 487.867 124.428 490 124.428C491.2 124.428 491.6 125.228 491.2 126.428ZM474 164.028C473.6 166.162 472.267 168.695 471.2 169.762C469.467 171.495 469.2 171.495 469.867 169.762C470.133 168.695 470.8 166.162 471.2 164.028C471.733 162.028 472.667 160.428 473.467 160.428C474.4 160.428 474.667 161.762 474 164.028ZM469.333 184.295C469.2 186.162 468.933 186.028 467.333 183.895C466.267 182.428 465.333 182.028 465.333 182.828C465.333 183.762 464.667 184.428 463.867 184.428C462.8 184.428 462.8 183.895 464 182.562C465.867 180.162 469.333 181.228 469.333 184.295ZM473.067 195.895C473.733 195.495 474.667 196.028 475.2 197.095C475.6 198.295 474.8 199.628 473.333 200.428C471.2 201.495 470.933 201.495 471.467 199.895C471.867 198.828 471.6 197.628 470.8 197.095C470 196.695 469.333 195.495 469.333 194.695C469.333 193.628 469.733 193.762 470.533 194.962C471.2 195.895 472.267 196.428 473.067 195.895ZM462.667 197.228C462.667 198.295 462 198.828 461.333 198.428C460.533 197.895 460.267 196.962 460.667 196.295C461.867 194.428 462.667 194.828 462.667 197.228ZM466 213.362C466 215.628 465.2 217.228 463.867 217.495C462.267 217.762 461.867 216.962 462.4 213.762C463.067 208.828 466.133 208.428 466 213.362ZM456.667 219.095C456.267 219.762 455.067 220.428 454.267 220.428C453.333 220.428 453.467 219.895 454.667 219.095C457.2 217.495 457.733 217.495 456.667 219.095ZM456.133 226.162C454.8 227.362 454.667 227.228 455.467 225.362C455.867 224.028 456.667 223.362 457.067 223.762C457.467 224.162 457.067 225.228 456.133 226.162ZM473.333 232.428C473.333 233.095 472.133 233.762 470.667 233.762C469.2 233.762 468 234.428 468 235.362C468 236.162 467.6 236.428 467.067 235.895C466.4 235.362 467.2 234.028 468.533 232.962C471.6 230.828 473.333 230.562 473.333 232.428ZM450.8 244.028C449.2 246.695 448.933 245.895 450.133 242.428C450.667 241.228 451.333 240.562 451.6 240.962C452 241.228 451.6 242.695 450.8 244.028ZM458.267 244.695C457.867 245.762 457.467 245.362 457.467 243.895C457.333 242.428 457.733 241.628 458.133 242.162C458.533 242.562 458.667 243.762 458.267 244.695ZM475.333 247.095C474.933 247.762 474 248.428 473.2 248.428C472.533 248.428 472 247.762 472 247.095C472 246.295 472.933 245.762 474.133 245.762C475.2 245.762 475.733 246.295 475.333 247.095ZM470 248.295C470.4 248.962 470.133 249.895 469.333 250.428C468.667 250.828 468 250.295 468 249.228C468 246.828 468.8 246.428 470 248.295ZM465.333 256.562C465.333 257.228 464.667 257.762 463.867 257.762C462.267 257.762 459.867 260.028 457.467 263.762L455.733 266.428L456.8 263.762C457.2 262.295 458 259.762 458.4 258.028C458.8 256.162 459.733 255.228 460.8 255.628C461.867 256.028 462.667 255.762 462.667 254.962C462.667 254.162 463.333 254.028 464 254.428C464.8 254.828 465.333 255.762 465.333 256.562ZM463.6 275.095C463.867 278.695 463.6 279.095 460.667 278.295C458.4 277.762 457.333 278.028 457.333 279.228C457.333 280.162 457.067 280.562 456.667 280.162C455.467 278.962 457.467 275.095 459.333 275.095C460.267 275.095 461.333 274.162 461.867 273.095C462.933 270.162 463.333 270.562 463.6 275.095ZM469.333 274.428C469.333 275.495 469.067 276.428 468.8 276.428C468.533 276.428 468 275.495 467.467 274.428C467.067 273.362 467.333 272.428 468 272.428C468.8 272.428 469.333 273.362 469.333 274.428ZM470.667 289.628C470.667 290.428 470.133 291.362 469.333 291.762C468.667 292.162 468 291.628 468 290.562C468 289.362 468.667 288.428 469.333 288.428C470.133 288.428 470.667 288.962 470.667 289.628ZM490.667 309.628C490.667 310.295 489.867 311.228 489.067 311.628C487.733 312.028 487.867 312.695 489.333 314.028C490.4 314.962 492.133 316.828 493.2 318.028C494.667 320.028 494.667 320.428 492.933 320.428C491.867 320.428 490.667 319.095 490.133 317.362C489.733 315.762 488.933 314.962 488.4 315.762C487.733 316.428 485.6 317.228 483.333 317.362C481.2 317.495 480.4 317.228 481.6 316.962C482.8 316.562 484.267 314.962 484.8 313.362C486 309.362 490.667 306.428 490.667 309.628ZM477.467 315.495C476.133 316.695 476 316.562 476.8 314.695C477.2 313.362 478 312.695 478.4 313.095C478.8 313.495 478.4 314.562 477.467 315.495ZM489.067 322.695C489.333 324.828 488.8 325.362 486.133 325.362C482.4 325.362 481.6 323.362 484.267 320.695C486.533 318.428 488.533 319.362 489.067 322.695ZM487.067 333.495C486.267 336.695 484 337.495 484 334.562C484 333.495 483.6 332.428 483.067 332.028C482.4 331.762 482.667 331.762 483.6 331.895C484.533 332.162 485.6 331.762 486.133 330.962C487.467 328.828 488 330.295 487.067 333.495ZM493.333 342.428C493.333 343.495 492.133 344.428 490.667 344.428C487.333 344.428 487.2 342.162 490.4 341.362C491.6 340.962 492.8 340.695 493.067 340.562C493.2 340.562 493.333 341.362 493.333 342.428ZM508.4 354.695C507.6 356.828 507.733 356.828 509.733 355.228C512.133 353.362 516 354.028 516 356.428C516 357.095 514.8 357.762 513.333 357.762C511.467 357.762 510.667 358.695 510.667 360.695C510.667 363.228 510.4 363.362 509.2 361.762C508.133 360.295 507.6 360.162 507.067 361.362C506.8 362.295 505.6 363.095 504.533 363.095C503.333 363.095 502.933 362.562 503.333 361.762C503.733 361.095 503.067 358.962 501.867 357.095C499.867 354.028 499.867 353.762 501.867 354.562C503.067 354.962 504 356.162 504 357.228C504 358.295 504.667 359.095 505.333 359.095C506.133 359.095 506.667 358.028 506.667 356.695C506.667 355.362 507.067 353.762 507.6 353.362C509.067 351.895 509.333 352.295 508.4 354.695ZM516.533 366.162C516.133 367.628 516.4 369.095 517.067 369.628C517.867 370.162 518 371.228 517.467 372.295C516.533 373.628 515.733 373.762 513.467 372.562C512 371.628 510.667 370.295 510.667 369.362C510.667 368.428 511.2 368.562 512 369.762C512.667 370.828 513.333 371.095 513.333 370.428C513.333 369.628 514 370.028 514.667 371.095C515.6 372.428 516 372.562 516 371.362C516 370.428 514.533 368.962 512.667 368.162C509.2 366.562 507.867 363.628 511.333 364.962C512.667 365.495 513.333 364.828 513.333 362.828C513.333 360.562 513.6 360.428 515.333 361.762C516.667 362.828 517.067 364.562 516.533 366.162ZM522 375.095C522.4 375.895 522 377.362 520.8 378.428C518.533 380.695 516.933 379.095 518.133 375.895C519.067 373.495 520.8 373.095 522 375.095Z" fill="#07D685"/>
<path d="M541.333 84.4281C541.333 85.0947 541.867 85.7614 542.533 85.7614C543.2 85.7614 544.933 86.1614 546.267 86.6947C548.4 87.4947 548.4 87.3614 546.8 85.3614C544.8 82.8281 541.333 82.2947 541.333 84.4281Z" fill="#07D685"/>
<path d="M535.467 90.9615C533.067 91.8948 533.067 92.0282 535.2 92.8282C537.733 93.8948 540 92.9615 540 90.9615C540 89.6282 539.067 89.4948 535.467 90.9615Z" fill="#07D685"/>
<path d="M530 97.7618C528.8 101.495 529.467 101.895 532.4 99.7618C534.4 98.2951 534.4 97.8951 532.8 96.5618C531.2 95.2284 530.667 95.4951 530 97.7618Z" fill="#07D685"/>
<path d="M522.667 104.294C522.667 106.561 525.067 107.094 525.867 105.094C526.267 103.894 525.867 103.094 524.667 103.094C523.6 103.094 522.667 103.628 522.667 104.294Z" fill="#07D685"/>
<path d="M529.333 115.094C529.333 115.761 530 116.428 530.667 116.428C531.467 116.428 532 115.761 532 115.094C532 114.294 531.467 113.761 530.667 113.761C530 113.761 529.333 114.294 529.333 115.094Z" fill="#07D685"/>
<path d="M517.333 125.628C517.333 127.495 521.067 130.028 522.933 129.362C524 128.828 523.867 128.562 522.4 128.562C521.067 128.428 520 127.495 520 126.428C520 125.362 519.467 124.428 518.667 124.428C518 124.428 517.333 124.962 517.333 125.628Z" fill="#07D685"/>
<path d="M509.6 134.294C510.533 135.361 511.6 135.894 511.867 135.761C512.533 134.961 510.533 132.428 509.2 132.428C508.533 132.428 508.667 133.228 509.6 134.294Z" fill="#07D685"/>
<path d="M505.333 154.294C505.333 154.561 506.267 155.494 507.333 156.428C508.533 157.361 509.333 157.494 509.333 156.694C509.333 156.028 508.4 155.094 507.333 154.561C506.267 154.161 505.333 154.028 505.333 154.294Z" fill="#07D685"/>
<path d="M491.6 166.962C491.067 169.228 491.2 169.762 492.267 168.695C492.933 168.028 493.333 166.562 493.067 165.628C492.667 164.562 492.133 165.228 491.6 166.962Z" fill="#07D685"/>
<path d="M486.267 168.828C485.733 170.161 484.667 170.828 483.867 170.295C482.933 169.761 482.933 170.428 484 172.428C485.467 175.228 485.733 175.228 486.933 173.228C487.6 172.028 488 170.028 487.733 168.695C487.333 166.561 487.2 166.561 486.267 168.828Z" fill="#07D685"/>
<path d="M497.333 172.428C497.333 173.095 497.867 173.762 498.533 173.762C499.333 173.762 500.267 173.095 500.667 172.428C501.067 171.628 500.533 171.095 499.467 171.095C498.267 171.095 497.333 171.628 497.333 172.428Z" fill="#07D685"/>
<path d="M487.467 175.361C486.267 176.961 485.333 177.628 485.333 176.694C485.333 175.894 484.8 175.094 484 175.094C483.333 175.094 482.667 176.028 482.667 177.094C482.667 178.428 484 179.094 486.133 179.094C488.933 179.094 489.467 179.628 488.933 181.761C488.533 183.094 489.067 184.961 490.133 185.894C491.6 187.094 492 186.694 492 183.228C492 180.961 491.333 179.094 490.667 179.094C489.867 179.094 489.6 177.628 490.133 175.761C491.2 171.628 490.133 171.494 487.467 175.361Z" fill="#07D685"/>
<path d="M477.333 176.961C477.333 177.228 478.267 178.161 479.333 179.094C480.933 180.428 481.333 180.428 481.333 178.561C481.333 177.361 480.4 176.428 479.333 176.428C478.267 176.428 477.333 176.694 477.333 176.961Z" fill="#07D685"/>
<path d="M502.667 181.095C502.667 182.161 503.6 183.095 504.667 183.095C505.733 183.095 506.667 182.561 506.667 181.895C506.667 181.228 505.733 180.428 504.667 179.895C503.467 179.495 502.667 179.895 502.667 181.095Z" fill="#07D685"/>
<path d="M501.733 193.095C499.6 195.495 499.467 197.495 501.467 195.495C502.267 194.695 503.733 194.295 504.667 194.561C505.6 194.961 506.667 194.295 507.067 193.228C508.133 190.561 504 190.428 501.733 193.095Z" fill="#07D685"/>
<path d="M489.333 202.962C489.333 204.028 488.4 204.428 487.067 203.762C485.067 203.095 484.933 203.228 486.4 204.562C487.6 205.895 488.4 205.895 489.6 204.695C490.4 203.895 490.8 202.695 490.267 202.162C489.733 201.762 489.333 202.028 489.333 202.962Z" fill="#07D685"/>
<path d="M491.467 212.028C490.667 213.894 490.8 214.028 492.133 212.828C493.067 211.894 493.467 210.828 493.067 210.428C492.667 210.028 491.867 210.694 491.467 212.028Z" fill="#07D685"/>
<path d="M480.4 213.762C480.666 217.762 482.666 219.495 484.933 217.495C487.466 215.495 487.066 213.762 484.133 213.762C482.666 213.762 481.2 212.962 480.8 212.028C480.533 211.228 480.266 211.895 480.4 213.762Z" fill="#07D685"/>
<path d="M496.666 220.428C496.266 221.095 496.533 221.762 497.2 221.762C498 221.762 498.666 221.095 498.666 220.428C498.666 219.628 498.4 219.095 498.133 219.095C497.733 219.095 497.066 219.628 496.666 220.428Z" fill="#07D685"/>
<path d="M485.333 224.695C485.333 225.362 484.4 225.762 483.2 225.762C482.133 225.762 481.6 226.428 482 227.095C482.667 228.162 483.467 228.028 484.667 227.095C486 226.028 487.2 226.028 489.2 226.962C492.533 228.828 496 228.828 496 227.095C496 226.428 494.933 226.295 493.733 226.695C492.133 227.362 491.733 226.962 492.267 225.628C492.8 224.295 491.867 223.762 489.2 223.762C487.067 223.762 485.333 224.162 485.333 224.695Z" fill="#07D685"/>
<path d="M504.667 225.628C504.267 226.295 504.533 227.228 505.333 227.762C506 228.162 506.667 227.628 506.667 226.562C506.667 224.162 505.867 223.762 504.667 225.628Z" fill="#07D685"/>
<path d="M478.133 229.361C477.733 229.761 477.733 230.694 478.133 231.228C479.067 232.828 484 232.828 484 231.228C484 229.894 479.2 228.428 478.133 229.361Z" fill="#07D685"/>
<path d="M494 232.428C494.4 233.095 495.333 233.762 496.133 233.762C496.8 233.762 497.333 233.095 497.333 232.428C497.333 231.628 496.4 231.095 495.2 231.095C494.133 231.095 493.6 231.628 494 232.428Z" fill="#07D685"/>
<path d="M488.667 235.228C488.133 236.028 488 236.828 488.4 237.228C488.667 237.628 489.333 236.962 489.733 235.762C490.667 233.495 489.867 233.095 488.667 235.228Z" fill="#07D685"/>
<path d="M504.667 235.228C503.2 237.361 504.533 237.761 506.4 235.628C507.333 234.561 507.467 233.761 506.8 233.761C506.133 233.761 505.067 234.428 504.667 235.228Z" fill="#07D685"/>
<path d="M499.6 240.562C500.533 241.495 501.6 241.895 502 241.495C502.4 241.095 501.733 240.295 500.4 239.895C498.533 239.095 498.4 239.228 499.6 240.562Z" fill="#07D685"/>
<path d="M498 244.561C497.467 245.361 497.334 246.161 497.734 246.561C498 246.961 498.667 246.295 499.067 245.095C500 242.828 499.2 242.428 498 244.561Z" fill="#07D685"/>
<path d="M482.667 249.228C481.733 251.761 481.467 254.295 481.866 254.695C482.267 255.228 482.667 254.561 482.667 253.361C482.667 250.828 484.667 250.295 486.133 252.561C486.667 253.495 486 254.695 484.8 255.361C483.467 256.028 482.8 257.628 483.2 258.828C483.733 260.428 482.4 262.028 479.333 264.161C476.8 265.761 474.667 266.428 474.667 265.761C474.667 264.961 474 264.695 473.2 265.095C472.266 265.761 472.666 266.961 474.133 268.561C477.2 271.895 478.266 271.761 479.2 267.761C480 264.561 482.667 262.961 482.667 265.761C482.667 266.428 483.867 267.095 485.2 267.095C488.667 267.095 492 268.428 492 269.895C492 270.561 491.067 271.095 489.867 271.095C488 271.095 488 271.495 489.333 273.095C491.2 275.361 494.667 275.761 494.667 273.761C494.667 272.961 494.133 272.428 493.467 272.428C492.8 272.428 492.533 271.361 492.933 269.895C493.467 267.628 491.067 266.028 486.133 265.228C484.267 264.961 483.733 262.161 485.2 261.095C486 260.695 486.667 260.961 486.667 261.895C486.667 262.828 487.067 263.095 487.467 262.695C488 262.161 487.6 260.961 486.667 259.761C485.333 258.161 485.467 257.628 487.2 256.961C490.133 255.895 489.867 254.028 486.4 251.095C482.933 248.295 483.867 246.161 487.6 248.161C489.6 249.361 490.133 249.095 490.133 246.961C490.133 245.228 489.2 244.428 487.2 244.428C484.933 244.428 483.867 245.628 482.667 249.228Z" fill="#07D685"/>
<path d="M496.667 251.228C496.133 252.028 496 252.828 496.4 253.228C496.667 253.628 497.333 252.962 497.733 251.762C498.667 249.495 497.867 249.095 496.667 251.228Z" fill="#07D685"/>
<path d="M504 251.762C504 252.828 504.533 253.762 505.333 253.762C506 253.762 506.267 252.828 505.867 251.762C505.333 250.695 504.8 249.762 504.533 249.762C504.267 249.762 504 250.695 504 251.762Z" fill="#07D685"/>
<path d="M477.333 255.095C477.333 255.762 476.4 256.428 475.333 256.428C474.267 256.428 473.333 256.962 473.333 257.762C473.333 258.428 474.4 258.562 475.6 258.162C477.2 257.495 477.6 257.895 476.933 259.495C476.533 260.695 476.667 261.762 477.2 261.762C477.867 261.762 478.667 260.828 479.2 259.762C479.6 258.695 479.333 257.762 478.667 257.762C478 257.762 477.733 256.828 478.133 255.762C478.667 254.695 478.533 253.762 478.133 253.762C477.733 253.762 477.333 254.295 477.333 255.095Z" fill="#07D685"/>
<path d="M500.8 262.428C499.6 265.895 499.867 266.695 501.467 264.028C502.267 262.695 502.667 261.228 502.267 260.961C502 260.561 501.333 261.228 500.8 262.428Z" fill="#07D685"/>
<path d="M498.667 270.294C498.667 270.828 499.6 272.161 500.667 273.228C501.733 274.428 502.667 274.694 502.667 274.028C502.667 273.361 501.733 272.028 500.667 271.094C499.6 270.161 498.667 269.894 498.667 270.294Z" fill="#07D685"/>
<path d="M479.467 274.695C478.667 276.561 478.8 276.695 480.133 275.495C481.067 274.561 481.467 273.495 481.067 273.095C480.667 272.695 479.867 273.361 479.467 274.695Z" fill="#07D685"/>
<path d="M489.333 281.095C489.333 282.161 490.267 283.095 491.333 283.095C492.4 283.095 493.333 282.161 493.333 281.095C493.333 280.028 492.4 279.095 491.333 279.095C490.267 279.095 489.333 280.028 489.333 281.095Z" fill="#07D685"/>
<path d="M488.933 288.161C486.133 291.228 486.133 292.028 489.067 292.695C490.8 293.228 491.333 292.428 491.6 289.495C492 285.095 491.733 284.961 488.933 288.161Z" fill="#07D685"/>
<path d="M511.466 297.228C510.8 299.094 510.933 299.228 512.666 297.761C514.933 295.894 515.2 295.094 513.466 295.094C512.8 295.094 511.866 296.028 511.466 297.228Z" fill="#07D685"/>
<path d="M492 298.828C492 299.628 491.067 300.028 490 299.628C487.467 298.561 487.334 300.961 489.867 302.961C491.334 304.161 491.867 303.894 492.4 301.494C492.934 299.894 492.934 298.294 492.667 297.894C492.267 297.628 492 298.028 492 298.828Z" fill="#07D685"/>
<path d="M496.933 298.695C495.6 299.895 495.867 303.095 497.2 303.095C497.867 303.095 498.667 301.895 499.067 300.428C499.733 297.761 498.667 296.961 496.933 298.695Z" fill="#07D685"/>
<path d="M496 311.095C496 312.828 497.467 312.828 500 311.095C501.6 310.028 501.467 309.761 499.067 309.761C497.333 309.761 496 310.295 496 311.095Z" fill="#07D685"/>
<path d="M510.8 311.894C510.8 313.361 511.2 313.761 511.6 312.694C512 311.761 511.867 310.561 511.467 310.161C511.067 309.628 510.667 310.428 510.8 311.894Z" fill="#07D685"/>
<path d="M502.667 312.428C502.667 313.095 501.2 313.761 499.333 313.761C495.733 313.761 494.8 315.628 497.867 316.828C498.933 317.228 500.533 316.695 501.467 315.628C502.4 314.561 504 314.028 505.067 314.428C506.667 314.961 506.8 314.828 505.333 313.095C503.333 310.695 502.667 310.561 502.667 312.428Z" fill="#07D685"/>
<path d="M500 323.228C500 324.028 500.933 324.428 502 323.895C503.2 323.495 504 323.895 504 325.095C504 326.161 504.667 327.095 505.333 327.095C506.267 327.095 506.267 326.295 505.333 324.428C503.867 321.628 500 320.695 500 323.228Z" fill="#07D685"/>
<path d="M502.666 335.762C500.8 337.895 501.333 338.162 504.533 336.962C505.733 336.562 506.666 335.628 506.666 334.962C506.666 333.095 504.533 333.495 502.666 335.762Z" fill="#07D685"/>
<path d="M445.333 343.094C445.333 343.761 446 344.428 446.8 344.428C447.467 344.428 447.733 343.761 447.333 343.094C446.933 342.294 446.267 341.761 445.867 341.761C445.6 341.761 445.333 342.294 445.333 343.094Z" fill="#07D685"/>
<path d="M523.734 342.695C524.667 343.095 525.867 342.962 526.267 342.562C526.8 342.162 526 341.762 524.534 341.895C523.067 341.895 522.667 342.295 523.734 342.695Z" fill="#07D685"/>
<path d="M513.333 344.294C513.333 344.961 514.267 345.894 515.467 346.294C517.333 346.961 517.467 346.828 516 345.094C514.133 342.828 513.333 342.561 513.333 344.294Z" fill="#07D685"/>
<path d="M526.667 349.761C526.667 350.561 527.6 351.095 528.667 351.095C529.733 351.095 530.667 350.828 530.667 350.561C530.667 350.295 529.733 349.761 528.667 349.228C527.6 348.828 526.667 349.095 526.667 349.761Z" fill="#07D685"/>
<path d="M521.333 361.494C521.333 362.428 521.867 363.094 522.533 363.094C523.2 363.094 523.467 364.161 523.067 365.494C522.267 368.561 525.6 371.361 528.533 370.294C530.133 369.628 530.4 368.961 529.333 367.761C528.267 366.561 528.267 365.761 529.333 365.361C530.133 364.961 530 364.828 529.067 364.961C528.133 365.228 526 364.161 524.4 362.694C522.667 361.228 521.333 360.694 521.333 361.494Z" fill="#07D685"/>
<path d="M530.133 374.962C529.733 375.628 530.267 376.562 531.467 376.962C534.133 378.028 535.333 377.095 534 375.228C532.933 373.495 531.067 373.362 530.133 374.962Z" fill="#07D685"/>
<path d="M549.333 397.095C549.333 398.161 550 399.095 550.667 399.095C551.467 399.095 552 398.161 552 397.095C552 396.028 551.467 395.095 550.667 395.095C550 395.095 549.333 396.028 549.333 397.095Z" fill="#07D685"/>
<path d="M1315.87 432.028C1314.13 434.162 1314.27 434.295 1316.4 432.562C1318.53 430.828 1319.2 429.762 1318.13 429.762C1317.87 429.762 1316.8 430.828 1315.87 432.028Z" fill="#07D685"/>
<path d="M1309.2 437.361C1307.47 439.495 1307.6 439.628 1309.73 437.895C1310.93 436.961 1312 435.895 1312 435.628C1312 434.561 1310.93 435.228 1309.2 437.361Z" fill="#07D685"/>
<path d="M1296 445.895C1293.07 448.295 1293.07 448.428 1295.6 447.228C1297.2 446.428 1298.93 445.095 1299.33 444.428C1300.53 442.428 1299.73 442.828 1296 445.895Z" fill="#07D685"/>
<path d="M1112.56 571.371C1072.73 576.159 1042.14 589.206 1021.86 610.392C1003.75 629.305 995.831 649.653 996.071 677.663C996.431 729.132 1026.54 764.204 1100.56 799.515C1176.86 836.022 1199.3 849.428 1224.85 873.847C1254.24 901.976 1263.48 927.95 1252.56 951.65C1243.44 971.281 1217.29 989.235 1188.38 995.579C1175.06 998.572 1149.51 998.811 1135.23 996.058C1090.13 987.559 1047.66 959.79 1011.19 914.783C997.271 897.667 977.956 864.391 966.44 837.578C965.48 835.424 965.12 845.598 965.12 876.839L965 919.092L980.956 934.893C1012.27 966.253 1046.46 985.285 1093.24 997.494C1125.28 1005.75 1165.94 1006.23 1195.34 998.452C1216.69 992.826 1233.85 984.088 1246.68 972.238C1260.72 959.311 1269.36 944.827 1274.03 926.394C1280.51 900.779 1276.19 870.495 1262.88 847.753C1245 817.469 1214.41 795.684 1147.35 765.64C1120.84 753.79 1089.65 735.836 1068.53 720.155C1009.03 676.106 998.591 628.706 1041.78 599.38C1073.81 577.595 1116.4 573.047 1157.79 586.812C1172.9 591.839 1181.9 596.268 1196.78 606.203C1222.69 623.32 1248.6 653.244 1265.64 685.563L1269.12 692.146L1269.48 660.665L1269.72 629.185L1264.2 621.883C1246.56 599.021 1211.53 581.306 1168.34 573.526C1159.11 571.73 1121.08 570.294 1112.56 571.371Z" fill="#07D685"/>
<path d="M1389 594.64V618.28L1394.81 613.214C1404 605.254 1420.7 594.519 1430.38 590.539C1453.13 581.131 1474.54 577.272 1511.57 576.186L1535.41 575.463V789.671V1004H1559H1582.59V789.912V575.825H1596.39C1653.01 575.825 1691.01 586.68 1719.32 610.682C1722.95 613.818 1726.7 616.833 1727.55 617.315C1728.64 618.039 1729 613.094 1729 594.64V571H1559H1389V594.64Z" fill="#07D685"/>
<path d="M2207 593.994V616.988H2331.61H2456.23V675.683V734.378H2365.85C2274.99 734.378 2257.45 735.105 2248.62 738.735C2230.59 746.117 2226.12 771.895 2238.58 796.462C2250.31 819.577 2271.73 841.24 2290.24 848.864C2303.67 854.431 2320.48 852.132 2329.56 843.539C2337.42 836.157 2338.15 833.011 2338.63 806.023L2339.11 781.577H2397.67H2456.23V877.788V974H2482.84H2509.46V795.494V616.988H2542.73H2576V593.994V571H2391.5H2207V593.994Z" fill="#07D685"/>
<path d="M1950.27 585.895C1868.67 593.095 1796.53 649.228 1771.33 724.828C1762.4 751.495 1760.8 762.961 1760.67 796.428C1760.67 820.695 1761.2 828.561 1763.2 837.761C1766.93 855.228 1771.6 869.228 1778.67 883.761C1823.6 977.361 1930 1025.09 2027.87 995.628C2062 985.361 2088.93 968.961 2114.67 943.228C2134.93 922.828 2150.53 900.695 2160 878.561C2162.4 872.961 2162.4 872.295 2160.4 873.895C2158.4 875.628 2158.27 875.495 2159.2 873.095C2162.93 864.028 2169.6 841.095 2171.33 831.228C2174.8 811.628 2173.33 809.361 2169.33 828.028C2165.87 844.561 2157.6 871.895 2156.53 870.828C2156.27 870.561 2158.13 864.028 2160.53 856.428C2164.93 842.828 2169.47 820.695 2169.2 813.895C2169.2 812.028 2167.87 817.361 2166.53 825.761C2154.67 894.028 2111.2 949.895 2049.2 976.561C2016.8 990.561 1978.93 996.295 1947.33 991.761C1915.6 987.361 1888 976.961 1861.33 959.361C1844.93 948.561 1819.2 922.828 1809.33 907.495C1782.53 865.761 1773.87 830.428 1777.6 778.428C1780.8 732.695 1804.13 685.361 1839.87 652.161C1850.13 642.695 1846.8 644.161 1833.47 654.961C1826.93 660.295 1826.4 660.428 1829.07 656.695C1836.67 646.161 1858.27 629.628 1879.33 618.295C1886 614.828 1892.13 611.095 1892.93 610.295C1893.87 609.361 1897.33 607.628 1900.67 606.295C1904 605.095 1906.53 603.761 1906.13 603.495C1905.33 602.561 1885.2 610.961 1873.73 617.095C1849.6 629.761 1817.87 658.695 1803.33 680.961C1799.2 687.228 1792.4 699.761 1788 708.695C1774.53 736.561 1769.47 755.895 1765.33 794.428L1764.4 803.761L1764.13 793.361C1763.73 768.828 1773.33 729.628 1786.27 703.895C1792.67 690.828 1797.07 684.161 1807.2 671.095C1810.93 666.295 1814.4 661.761 1814.93 661.095C1826.13 645.628 1853.47 624.295 1878.13 612.028C1899.87 601.095 1932.93 591.495 1951.07 590.828L1956.67 590.695L1950.67 589.761C1947.2 589.228 1952.13 588.961 1962.67 589.095C1977.73 589.361 1978.8 589.228 1969.33 588.561L1958 587.628L1974 587.095C1987.87 586.828 1989.07 586.561 1982.67 585.761C1973.6 584.428 1965.47 584.428 1950.27 585.895ZM1940.93 590.561C1940.53 590.961 1939.33 591.095 1938.4 590.695C1937.33 590.295 1937.73 589.895 1939.2 589.895C1940.67 589.761 1941.47 590.161 1940.93 590.561ZM1865.33 616.428C1850.53 625.361 1836.53 636.028 1822.67 648.828L1811.33 659.495L1823.33 647.495C1830 640.961 1839.87 632.295 1845.33 628.295C1856 620.428 1873.2 609.761 1875.2 609.761C1875.87 609.761 1871.47 612.828 1865.33 616.428ZM1812 660.828C1812 661.095 1810.67 662.428 1809.07 663.895L1806 666.428L1808.53 663.361C1810.93 660.561 1812 659.761 1812 660.828ZM1764.93 812.695C1764.53 813.761 1764.13 813.361 1764.13 811.895C1764 810.428 1764.4 809.628 1764.8 810.161C1765.2 810.561 1765.33 811.761 1764.93 812.695ZM2154.13 877.361C2153.07 879.361 2152.13 880.695 2152 880.161C2152 878.561 2155.07 872.428 2155.6 872.961C2156 873.228 2155.33 875.228 2154.13 877.361ZM1784 878.428C1784 879.095 1783.33 878.828 1782.67 877.761C1782 876.695 1781.33 875.095 1781.33 874.428C1781.33 873.628 1782 874.028 1782.67 875.095C1783.33 876.161 1784 877.628 1784 878.428ZM1836 950.428C1837.73 952.295 1838.8 953.761 1838.4 953.761C1838.13 953.761 1836.4 952.295 1834.67 950.428C1832.93 948.561 1831.87 947.095 1832.27 947.095C1832.53 947.095 1834.27 948.561 1836 950.428Z" fill="#07D685"/>
<path d="M1989.73 590.695C1990.93 590.961 1993.07 590.961 1994.4 590.695C1995.6 590.295 1994.53 590.028 1992 590.028C1989.47 590.028 1988.4 590.295 1989.73 590.695Z" fill="#07D685"/>
<path d="M2104 638.161C2104 638.428 2106 640.294 2108.4 642.561L2112.67 646.428L2108.8 642.028C2105.07 638.028 2104 637.094 2104 638.161Z" fill="#07D685"/>
<path d="M1853.2 642.694C1851.47 644.828 1851.6 644.961 1853.73 643.228C1854.93 642.294 1856 641.228 1856 640.961C1856 639.894 1854.93 640.561 1853.2 642.694Z" fill="#07D685"/>
<path d="M2121.33 655.761C2125.33 659.761 2128.93 663.095 2129.2 663.095C2129.6 663.095 2126.67 659.761 2122.67 655.761C2118.67 651.761 2115.07 648.428 2114.8 648.428C2114.4 648.428 2117.33 651.761 2121.33 655.761Z" fill="#07D685"/>
<path d="M2131.33 667.095C2132.67 668.562 2134 669.762 2134.4 669.762C2134.8 669.762 2134 668.562 2132.67 667.095C2131.33 665.628 2130 664.428 2129.6 664.428C2129.2 664.428 2130 665.628 2131.33 667.095Z" fill="#07D685"/>
<path d="M2141.07 680.695C2144.67 686.028 2148.67 692.428 2149.87 694.695C2151.07 697.095 2152.4 699.095 2152.8 699.095C2154.4 699.095 2138.53 673.361 2135.87 671.628C2135.07 671.228 2137.47 675.228 2141.07 680.695Z" fill="#07D685"/>
<path d="M2155.6 705.094C2156.8 707.628 2158 709.494 2158.4 709.228C2158.93 708.561 2154.93 700.428 2154 700.428C2153.6 700.428 2154.4 702.561 2155.6 705.094Z" fill="#07D685"/>
</g>
<defs>
<filter id="filter0_d_559_270" x="0" y="0" width="2580" height="1012.29" filterUnits="userSpaceOnUse" color-interpolation-filters="sRGB">
<feFlood flood-opacity="0" result="BackgroundImageFix"/>
<feColorMatrix in="SourceAlpha" type="matrix" values="0 0 0 0 0 0 0 0 0 0 0 0 0 0 0 0 0 0 127 0" result="hardAlpha"/>
<feOffset dy="4"/>
<feGaussianBlur stdDeviation="2"/>
<feComposite in2="hardAlpha" operator="out"/>
<feColorMatrix type="matrix" values="0 0 0 0 0 0 0 0 0 0 0 0 0 0 0 0 0 0 0.25 0"/>
<feBlend mode="normal" in2="BackgroundImageFix" result="effect1_dropShadow_559_270"/>
<feBlend mode="normal" in="SourceGraphic" in2="effect1_dropShadow_559_270" result="shape"/>
</filter>
</defs>
</svg>
